<?xml version="1.0" standalone="no"?>
<svg version="1.0" xmlns="http://www.w3.org/2000/svg" viewBox="0 0 240.000000 240.000000"
 preserveAspectRatio="xMidYMid meet">

<g transform="translate(0.000000,240.000000) scale(0.100000,-0.100000)"
 stroke="none">
<path d="M955 2089 c-154 -26 -302 -104 -421 -223 -141 -141 -219 -312 -231
-506 -34 -566 521 -983 1051 -789 43 16 94 38 113 49 19 11 40 20 46 20 7 0
82 -70 167 -156 85 -86 169 -162 187 -170 133 -58 277 86 219 219 -8 18 -84
102 -170 187 -86 85 -156 160 -156 167 0 6 9 27 20 46 34 58 77 188 90 272 28
184 -22 392 -133 555 -170 248 -484 380 -782 329z m185 -454 c43 -22 60 -63
60 -145 l0 -70 79 0 c92 0 123 -18 142 -79 9 -32 8 -44 -6 -75 -24 -50 -59
-66 -145 -66 l-70 0 0 -70 c0 -86 -16 -121 -66 -145 -31 -14 -43 -15 -75 -6
-61 19 -79 50 -79 142 l0 79 -70 0 c-82 0 -123 17 -145 60 -19 36 -19 63 -1
99 25 46 44 56 130 61 l81 5 5 80 c6 90 9 99 54 126 38 23 67 24 106 4z"/>
</g>
</svg>
