<svg xmlns="http://www.w3.org/2000/svg" xmlns:xlink="http://www.w3.org/1999/xlink" width="19" height="19" viewBox="0 0 19 19">
  <defs>
    <clipPath id="clip-path">
      <rect id="Rectangle_155" data-name="Rectangle 155" width="19" height="19" transform="translate(15 137)" fill="#fff" stroke="#707070" stroke-width="1"/>
    </clipPath>
  </defs>
  <g id="Mask_Group_1" data-name="Mask Group 1" transform="translate(-15 -137)" clip-path="url(#clip-path)">
    <g id="_2444303-200" data-name="2444303-200" transform="translate(14.695 156.451)">
      <path id="Path_119" data-name="Path 119" d="M16.053-19.194a2.532,2.532,0,0,0-1.575,3.181,2.961,2.961,0,0,0,1.536,1.536A2.486,2.486,0,0,0,19.2-16.133a2.476,2.476,0,0,0-2.174-3.161A2.613,2.613,0,0,0,16.053-19.194Zm1.585.688a2.51,2.51,0,0,1,.967,1.117A2.272,2.272,0,0,1,18.3-15.7a1.925,1.925,0,0,1-2.114.638A2.42,2.42,0,0,1,15.1-16.123a2.006,2.006,0,0,1,.419-2.044A2.135,2.135,0,0,1,17.639-18.506Z"/>
      <path id="Path_120" data-name="Path 120" d="M16.552-17.6v.449h-.5c-.489,0-.5.01-.5.289s.02.3.479.329l.469.03.03.469c.03.459.05.479.329.479s.289-.01.289-.5v-.5H17.6c.429,0,.449-.01.449-.3s-.02-.3-.449-.3H17.15V-17.6c0-.429-.01-.449-.3-.449S16.552-18.028,16.552-17.6Z"/>
      <path id="Path_121" data-name="Path 121" d="M7.229-18.9a2.122,2.122,0,0,0-1.177,1.316l-.11.419-1.785.03-1.785.03-.239.279c-.239.279-.239.3-.239,2.5v2.224l.259.269a.866.866,0,0,0,.748.259H3.39v.469a.939.939,0,0,1-.189.668,8.346,8.346,0,0,0-.638,1.855L2.124-6.94l-.369.08a1.809,1.809,0,0,0-1.177.7c-.209.309-.229.439-.259,1.9C.279-2.4.309-2.194.648-2.194c.229,0,.239.03.269.768l.03.778h.6l.03-.778.03-.768h.588V-.6h.6v-1.6h9.971V-.6h.6v-1.6h.7V-.6h.6v-.788c0-.788,0-.8.279-.828l.269-.03.03-1.6a10.123,10.123,0,0,0-.08-1.964A1.559,1.559,0,0,0,13.87-6.84l-.489-.06-.419-1.675a7.757,7.757,0,0,0-.608-1.885.927.927,0,0,1-.189-.658v-.449h.5a.873.873,0,0,0,.748-.239c.319-.319.379-.808.329-2.951l-.03-1.815-.329-.289-.319-.289h-1.7c-1.536,0-1.705-.02-1.755-.179a2.144,2.144,0,0,0-1.406-1.605A1.125,1.125,0,0,0,7.229-18.9Zm1.3.877a1.7,1.7,0,0,1-.179,2.563.913.913,0,0,1-1.087.02,1.791,1.791,0,0,1-.13-2.692A1.015,1.015,0,0,1,8.525-18.018ZM5.943-16.382A2.919,2.919,0,0,0,6.591-15.2a.782.782,0,0,1,.289.6v.319l-.648.07c-1.1.12-1.546.558-1.546,1.526v.528l-1.067-.03-1.077-.03-.03-2.034a8.041,8.041,0,0,1,.09-2.164c.09-.11.479-.14,1.705-.14C5.723-16.552,5.893-16.532,5.943-16.382Zm7.01-.03a8.041,8.041,0,0,1,.09,2.164l-.03,2.034-1.067.03-1.077.03v-.608a1.045,1.045,0,0,0-.319-.957c-.289-.309-.419-.359-1.047-.459l-.728-.1v-.329a.894.894,0,0,1,.289-.638,2.132,2.132,0,0,0,.409-.688c.06-.2.13-.429.15-.5A10.1,10.1,0,0,1,12.952-16.412ZM8.077-14.259c0,.479.11.548,1,.648.658.07.987.189,1.117.389A5.958,5.958,0,0,1,10.27-12v1.127H5.285v-1.1c0-1.4.1-1.526,1.157-1.645.927-.1,1.037-.17,1.037-.648,0-.379.02-.4.3-.4S8.077-14.638,8.077-14.259Zm-3.39,3.041c0,.319-.02.349-.3.349s-.3-.03-.3-.349.02-.349.3-.349S4.686-11.537,4.686-11.217Zm6.83,0c0,.269-.03.3-.3.3-.209,0-.309-.05-.329-.179-.06-.329.06-.489.349-.449C11.477-11.517,11.517-11.467,11.517-11.217Zm.289,1.077a5.155,5.155,0,0,1,.558,1.7l.369,1.565H7.767c-2.742,0-4.976-.02-4.976-.06s.179-.728.4-1.565a6.674,6.674,0,0,1,.568-1.645A58.571,58.571,0,0,1,11.806-10.141ZM14.4-5.873c.249.3.259.349.259,1.7v1.386H.887l.03-1.456c.03-1.456.03-1.456.309-1.7l.279-.239H14.139Z" stroke="#000" stroke-linecap="round" stroke-linejoin="round" stroke-width="0.3"/>
    </g>
  </g>
</svg>
