<svg xmlns="http://www.w3.org/2000/svg" xmlns:xlink="http://www.w3.org/1999/xlink" width="20" height="20" viewBox="0 0 20 20">
  <defs>
    <clipPath id="clip-path">
      <rect id="Rectangle_35" data-name="Rectangle 35" width="20" height="20" transform="translate(-0.161)" fill="#fff"/>
    </clipPath>
  </defs>
  <g id="Mask_Group_4" data-name="Mask Group 4" transform="translate(0.161)" clip-path="url(#clip-path)">
    <g id="NicePng_booking-icon-png_3820400" transform="translate(0 1.722)">
      <path id="Path_19" data-name="Path 19" d="M4.082-16.565a5.978,5.978,0,0,0-.111.915c-.1,1.221.011,1.745.344,1.745.28,0,.418-.74.333-1.782-.069-.878-.09-.936-.328-.957C4.182-16.655,4.119-16.634,4.082-16.565Z" transform="translate(-0.137 16.656)" fill="#3a2def"/>
      <path id="Path_20" data-name="Path 20" d="M8.053-16.613a6.756,6.756,0,0,0-.169,1.851c.026.666.111.872.354.846.222-.026.338-.323.37-.941a6.661,6.661,0,0,0-.153-1.7A.343.343,0,0,0,8.053-16.613Z" transform="translate(-0.137 16.656)" fill="#3a2def"/>
      <path id="Path_21" data-name="Path 21" d="M11.9-16.528a9.464,9.464,0,0,0-.1,2.014c.048.444.143.608.344.608.185,0,.286-.2.333-.661a8.61,8.61,0,0,0-.106-1.993c-.037-.063-.111-.1-.238-.1C11.986-16.655,11.939-16.629,11.9-16.528Z" transform="translate(-0.137 16.656)" fill="#3a2def"/>
      <path id="Path_22" data-name="Path 22" d="M15.878-16.613a6.515,6.515,0,0,0-.164,1.819c.026.661.106.862.333.862.243,0,.354-.28.386-.957a5.8,5.8,0,0,0-.153-1.666A.326.326,0,0,0,15.878-16.613Z" transform="translate(-0.137 16.656)" fill="#3a2def"/>
      <path id="Path_23" data-name="Path 23" d="M1.285-15.465a1.2,1.2,0,0,0-1.073.846c-.1.286-.1,13.155-.005,13.488a1.5,1.5,0,0,0,.18.4,1.949,1.949,0,0,0,1.147.571c.2.032,3.1.058,6.953.063,5.927.005,6.636,0,6.874-.074a3.568,3.568,0,0,0,.82-.518c.682-.534,2.7-2.051,3.178-2.385a1.685,1.685,0,0,0,.735-.83c.037-.143.053-1.866.042-5.462l-.016-5.256-.132-.254c-.291-.56-1.11-.761-2.612-.634l-.407.037.016.772c.016.888-.032,1.042-.412,1.264a1.17,1.17,0,0,1-1.068-.032c-.307-.222-.354-.381-.354-1.147-.005-.381-.011-.74-.016-.809l-.011-.116-1.015.011-1.02.016-.026.82c-.021.693-.042.846-.132,1a1,1,0,0,1-1.581-.011c-.1-.132-.111-.238-.127-.957l-.016-.814-.2-.032c-.106-.016-.555-.032-1-.032h-.8l-.032.143a6.041,6.041,0,0,0-.021.809c.016.767-.042.941-.412,1.153a1.17,1.17,0,0,1-1.068-.032c-.317-.227-.354-.37-.344-1.237l.016-.772-.333-.037c-.18-.016-.65-.026-1.042-.016l-.714.016-.026.83c-.021.73-.037.846-.137.973a.824.824,0,0,1-.751.381c-.3.016-.381,0-.534-.106-.37-.254-.4-.333-.428-1.248l-.026-.83-.846-.011A7.891,7.891,0,0,0,1.285-15.465Zm18.173,7.4c0,3.77,0,3.78-.111,3.812-.058.021-.767.021-1.57,0a10.785,10.785,0,0,0-1.766.021,1.362,1.362,0,0,0-.941.666c-.132.264-.132.264-.116,1.517l.011,1.258L9.269-.783c-8.756.021-7.889.032-8.105-.1A.744.744,0,0,1,.9-1.142c-.09-.174-.085.079-.063-6.329l.011-4.373H19.457ZM18.442-3.622c.444,0,.624.016.576.053-.6.455-1.983,1.449-2.6,1.866l-.793.539-.042-.724c-.1-1.7.032-1.845,1.523-1.771C17.485-3.638,18.083-3.622,18.442-3.622Z" transform="translate(-0.137 16.656)" fill="#3a2def"/>
      <path id="Path_24" data-name="Path 24" d="M12.1-11.119a1.567,1.567,0,0,0-.862.619A1.509,1.509,0,0,0,11.1-9.38a1.566,1.566,0,0,0,.709.809,1.439,1.439,0,0,0,1.623-.354,1.665,1.665,0,0,0,.317-.857,1.433,1.433,0,0,0-.957-1.29A1.263,1.263,0,0,0,12.1-11.119Zm1.047.962c-.106.127-.8.978-.809,1a2.116,2.116,0,0,1-.386-.222c-.264-.169-.365-.264-.344-.323.042-.111.063-.106.375.106.153.1.286.185.3.185s.2-.217.407-.476c.312-.386.4-.465.46-.418S13.208-10.231,13.15-10.157Z" transform="translate(-0.137 16.656)" fill="#3a2def"/>
      <path id="Path_25" data-name="Path 25" d="M2.062-9.813V-9l.36.032a13.063,13.063,0,0,0,1.93,0L4.706-9v-.777c0-.666-.011-.788-.085-.814-.048-.016-.64-.032-1.322-.032H2.062Z" transform="translate(-0.137 16.656)" fill="#3a2def"/>
      <path id="Path_26" data-name="Path 26" d="M6.593-10.591a4.686,4.686,0,0,0-.037.809V-9l.407.037a13.132,13.132,0,0,0,1.882-.005L9.2-9v-.777c0-.666-.011-.788-.085-.814A23.558,23.558,0,0,0,6.593-10.591Z" transform="translate(-0.137 16.656)" fill="#3a2def"/>
      <path id="Path_27" data-name="Path 27" d="M15.582-10.591a4.686,4.686,0,0,0-.037.809V-9l.407.037c.222.016.645.032.941.032s.719-.016.941-.032L18.241-9v-.777c0-.666-.011-.788-.085-.814A24.557,24.557,0,0,0,15.582-10.591Z" transform="translate(-0.137 16.656)" fill="#3a2def"/>
      <path id="Path_28" data-name="Path 28" d="M2.083-7.09c-.011.011-.021.37-.021.8v.777l.661.026c.365.016.957.016,1.322,0l.661-.026v-1.56l-.539-.037A18.917,18.917,0,0,0,2.083-7.09Z" transform="translate(-0.137 16.656)" fill="#3a2def"/>
      <path id="Path_29" data-name="Path 29" d="M6.551-7.053a3.752,3.752,0,0,0-.037.793l.016.735.555.032c.307.021.9.021,1.338.005L9.2-5.515v-1.56l-.539-.037A10.19,10.19,0,0,0,6.551-7.053Z" transform="translate(-0.137 16.656)" fill="#3a2def"/>
      <path id="Path_30" data-name="Path 30" d="M11.072-7.09c-.011.011-.021.37-.021.8v.777l.783.026c.428.016,1.026.016,1.332-.005l.555-.032.016-.777.016-.772-.545-.037A18.65,18.65,0,0,0,11.072-7.09Z" transform="translate(-0.137 16.656)" fill="#3a2def"/>
      <path id="Path_31" data-name="Path 31" d="M15.592-7.053a3.752,3.752,0,0,0-.037.793l.016.735.555.032c.307.021.9.021,1.338.005l.777-.026v-1.56L17.7-7.111A10.19,10.19,0,0,0,15.592-7.053Z" transform="translate(-0.137 16.656)" fill="#3a2def"/>
      <path id="Path_32" data-name="Path 32" d="M7.508-4.129a1.519,1.519,0,0,0-.867.73,1.374,1.374,0,0,0,.608,1.782A1.413,1.413,0,0,0,8.84-1.882,1.4,1.4,0,0,0,8.735-3.86,1.484,1.484,0,0,0,7.508-4.129Zm1.147.83A4.964,4.964,0,0,1,7.762-2.21,2.937,2.937,0,0,1,7.085-2.7c0-.122.127-.1.381.074.185.127.3.169.333.137a5.89,5.89,0,0,0,.4-.476C8.518-3.357,8.613-3.426,8.655-3.3Z" transform="translate(-0.137 16.656)" fill="#3a2def"/>
      <path id="Path_33" data-name="Path 33" d="M2.1-3.611a4.444,4.444,0,0,0-.037.788c0,.634.011.756.085.783a24.142,24.142,0,0,0,2.474,0c.074-.026.085-.148.085-.788v-.756l-.164-.032A21.983,21.983,0,0,0,2.1-3.611Z" transform="translate(-0.137 16.656)" fill="#3a2def"/>
      <path id="Path_34" data-name="Path 34" d="M11.088-3.611a4.444,4.444,0,0,0-.037.788c0,.634.011.756.085.783a24.55,24.55,0,0,0,2.5,0c.111-.032.116-.053.116-.788V-3.58l-.2-.037A22.3,22.3,0,0,0,11.088-3.611Z" transform="translate(-0.137 16.656)" fill="#3a2def"/>
    </g>
  </g>
</svg>
