<svg xmlns="http://www.w3.org/2000/svg" width="18.906" height="19" viewBox="0 0 18.906 19">
  <g id="deadline_1_" data-name="deadline (1)" transform="translate(-0.2 19.166)">
    <path id="Path_93" data-name="Path 93" d="M4.374-19.039a1.212,1.212,0,0,0-.313.972v.34l-.752.04a4.959,4.959,0,0,0-1.145.18A2.976,2.976,0,0,0,.419-15.984l-.186.373L.213-8.967.2-2.323l.226.493A2.793,2.793,0,0,0,1.851-.413l.513.246H4.4c1.911,0,2.05-.007,2.184-.126a.613.613,0,0,0-.246-1.032A15.849,15.849,0,0,0,4.4-1.4a12.2,12.2,0,0,1-1.964-.08,1.78,1.78,0,0,1-.959-.959c-.107-.366-.113-12.509-.007-12.895A1.729,1.729,0,0,1,2.3-16.25,2.338,2.338,0,0,1,3.3-16.377h.739l.033.506c.053.779.386,1.112.885.872.293-.14.366-.326.366-.919v-.459H8.987v.506c0,.486.007.513.226.732a.483.483,0,0,0,.786.033c.206-.186.22-.22.24-.732l.027-.539h3.628l.033.546c.033.506.047.553.246.732a.488.488,0,0,0,.639.107c.26-.12.366-.379.366-.919v-.466h.786c.885,0,1.158.087,1.524.473a1.536,1.536,0,0,1,.419.872,1.769,1.769,0,0,0,.073.4.6.6,0,0,0,.959.313c.173-.14.18-.16.153-.719A2.389,2.389,0,0,0,18.4-16.7a3.174,3.174,0,0,0-2.437-.985l-.786-.04v-.459c0-.526-.107-.786-.366-.905a.488.488,0,0,0-.639.107c-.2.18-.213.226-.246.732l-.033.546H10.265l-.027-.539c-.02-.513-.033-.546-.24-.732a.483.483,0,0,0-.786.033c-.22.22-.226.246-.226.732v.506H5.326v-.459c0-.573-.073-.772-.326-.905A.5.5,0,0,0,4.374-19.039Z"/>
    <path id="Path_94" data-name="Path 94" d="M11.75-12.615a6.557,6.557,0,0,0-3.422,1.831A6.668,6.668,0,0,0,6.657-7.523,8.22,8.22,0,0,0,6.65-5.346,6.376,6.376,0,0,0,8.321-2.11,6.4,6.4,0,0,0,11.251-.359a4.3,4.3,0,0,0,1.6.186,4.606,4.606,0,0,0,1.611-.173,4.221,4.221,0,0,0,1.678-.8.553.553,0,0,0-.073-.732c-.3-.266-.386-.273-.932-.02a5.158,5.158,0,0,1-2.237.5A4.79,4.79,0,0,1,10.618-1.9a5.027,5.027,0,0,1-2.61-3.022,3.635,3.635,0,0,1-.186-1.5,4.052,4.052,0,0,1,.16-1.431,5.085,5.085,0,0,1,2.676-3.136,5.314,5.314,0,0,1,4.487.06c.772.406,1.691,1.218,1.7,1.491,0,.107-.073.12-.579.12a4.566,4.566,0,0,0-.825.067.592.592,0,0,0-.3.979l.16.186h1.158c1.118,0,1.158-.007,1.485-.18a2.462,2.462,0,0,0,1.005-1c.153-.3.16-.379.16-1.511,0-1.158-.007-1.2-.146-1.338a.551.551,0,0,0-.9.107,1.833,1.833,0,0,0-.14.852,2.7,2.7,0,0,1-.087.732c-.033.04-.273-.146-.606-.473a6.129,6.129,0,0,0-3.448-1.744A6.926,6.926,0,0,0,11.75-12.615Z"/>
    <path id="Path_95" data-name="Path 95" d="M12.582-9.233c-.286.146-.333.333-.333,1.478L12.242-6.69l-.526.433c-.646.533-.786.792-.6,1.138a.705.705,0,0,0,.652.293,5.066,5.066,0,0,0,.885-.646c.892-.739.879-.712.845-2.3l-.02-1.158-.22-.193A.527.527,0,0,0,12.582-9.233Z"/>
    <path id="Path_96" data-name="Path 96" d="M18.221-6.584a.687.687,0,0,0-.22.3.588.588,0,0,0,.972.626.565.565,0,0,0,.133-.426c0-.24-.033-.32-.173-.433A.693.693,0,0,0,18.221-6.584Z"/>
    <path id="Path_97" data-name="Path 97" d="M17.169-3.655a.64.64,0,0,0-.193.393.725.725,0,0,0,.559.6.64.64,0,0,0,.606-.373.515.515,0,0,0-.206-.686A.519.519,0,0,0,17.169-3.655Z"/>
  </g>
</svg>
