<svg xmlns="http://www.w3.org/2000/svg" width="15.812" height="18" viewBox="0 0 15.812 18"><defs><style>.a{fill:#fff;}</style></defs><g transform="translate(-1.09 18)"><path class="a" d="M4.219-17.958a4.246,4.246,0,0,0-.608.158A3.678,3.678,0,0,0,1.318-15.56c-.239.668-.229.214-.229,8.272V0H14.8V-8.525l.313-.1a2.54,2.54,0,0,0,1.076-.7,2.374,2.374,0,0,0,.563-.9,2.684,2.684,0,0,0-.823-2.953,2.9,2.9,0,0,0-.949-.506l-.179-.046V-18L9.626-18C6.659-17.993,4.349-17.979,4.219-17.958Zm9.527,2.623v1.61l-.2.063A2.815,2.815,0,0,0,11.9-12.255a2.736,2.736,0,0,0-.257,1c-.053.527-.144.675-.882,1.424a8.7,8.7,0,0,1-.714.679.632.632,0,0,1-.461.007,3.167,3.167,0,0,1-.3-.207A1.6,1.6,0,0,0,7.6-9.538a3.981,3.981,0,0,0-.868.752l-.668.664L8.677-5.513,11.285-2.9l.647-.65a4.166,4.166,0,0,0,.749-.861,1.545,1.545,0,0,0,.134-1.118,1.6,1.6,0,0,0-.366-.686c-.162-.2-.179-.239-.179-.4a.7.7,0,0,1,.049-.271,15.973,15.973,0,0,1,1.389-1.378c.028,0,.039.932.039,3.6v3.6H2.145V-13.781H5.309v-3.164h8.438Zm-9.492-.52v1.02H3.234c-.865,0-1.02-.007-1.02-.049a3.01,3.01,0,0,1,.309-.777,3.4,3.4,0,0,1,.738-.8,2.737,2.737,0,0,1,.932-.411C4.25-16.875,4.254-16.8,4.254-15.855Zm10.382,3.182a1.389,1.389,0,0,1,.731.436,1.544,1.544,0,0,1,.489,1.129,1.578,1.578,0,0,1-1.378,1.554,3.99,3.99,0,0,0-1.153.3c-.236.116-.345.211-1.03.886-.422.418-.8.816-.84.882l-.088.141a11.34,11.34,0,0,1-.854-.844.39.39,0,0,1,.12-.084,15.508,15.508,0,0,0,1.705-1.751,2.45,2.45,0,0,0,.323-.868,2.765,2.765,0,0,1,.2-.911,1.626,1.626,0,0,1,.309-.415A1.491,1.491,0,0,1,14.636-12.674ZM8.5-8.613c.13.049,3.2,3.115,3.266,3.259.113.257.053.418-.264.731l-.214.211L9.422-6.275,7.559-8.139l.186-.186C8.037-8.624,8.248-8.7,8.5-8.613Z"/><path class="a" d="M4.788-6.293a2.012,2.012,0,0,0-.96.563A2.054,2.054,0,0,0,3.435-3.3a2.393,2.393,0,0,0,.879.907,2.11,2.11,0,0,0,1.5.183,1.913,1.913,0,0,0,.97-.562,1.913,1.913,0,0,0,.563-.97,2.112,2.112,0,0,0-.183-1.5A2.587,2.587,0,0,0,6.3-6.11,2.169,2.169,0,0,0,4.788-6.293Zm.991,1.1a.978.978,0,0,1,.566.935.981.981,0,0,1-.573.939.848.848,0,0,1-.464.1.848.848,0,0,1-.464-.1A1.048,1.048,0,0,1,4.43-4.827,1.052,1.052,0,0,1,5.78-5.189Z"/><path class="a" d="M13.887-11.479l-.369.369.38.38.376.376.376-.376.38-.38-.369-.369c-.2-.2-.376-.369-.387-.369S14.091-11.682,13.887-11.479Z"/></g></svg>