<svg xmlns="http://www.w3.org/2000/svg" width="18" height="13.011" viewBox="0 0 18 13.011"><defs><style>.a{fill:#fff;}</style></defs><g transform="translate(0 15.507)"><path class="a" d="M0-9v6.5H1.2V-15.5H0Z"/><path class="a" d="M1.793-10.705v4.8H2.6v-9.6H1.793Z"/><path class="a" d="M2.988-10.705v4.8h.6v-9.6h-.6Z"/><path class="a" d="M4.008-10.705v4.8h.809L4.809-10.7,4.8-15.486,4.405-15.5l-.4-.011Z"/><path class="a" d="M5.414-10.705v4.8h1.2v-9.6h-1.2Z"/><path class="a" d="M7-10.705v4.8h.6v-9.6H7Z"/><path class="a" d="M8.016-10.705v4.8H9v-9.6H8.016Z"/><path class="a" d="M9.809-10.705v4.8H12.2v-9.6H9.809Z"/><path class="a" d="M13.008-10.705v4.8H14.8v-9.6H13.008Z"/><path class="a" d="M15.4-10.705v4.8h1.2v-9.6H15.4Z"/><path class="a" d="M17.016-9v6.5H18V-15.5h-.984Z"/><path class="a" d="M2.584-4.588a1.175,1.175,0,0,1-.13.032.718.718,0,0,0-.218.127A1.41,1.41,0,0,0,2.32-2.587a.708.708,0,0,0,.555.007c.281-.144.411-.468.408-1.005-.007-.619-.179-.928-.559-.991A.563.563,0,0,0,2.584-4.588Zm.253.309c.13.116.169.292.165.745,0,.366-.011.443-.081.573-.155.3-.432.3-.6,0-.081-.141-.088-.19-.088-.594s.007-.454.088-.6C2.461-4.4,2.654-4.447,2.837-4.279Z"/><path class="a" d="M5.632-4.567c-.285.056-.411.176-.323.313.028.042.053.039.169-.028a.484.484,0,0,1,.573.025.31.31,0,0,1,.1.274c0,.246-.151.478-.584.907-.281.278-.366.38-.366.454v.091l.643-.007.64-.011V-2.76L6.043-2.77,5.6-2.781l.306-.313c.5-.506.636-.879.446-1.213A.653.653,0,0,0,5.632-4.567Z"/><path class="a" d="M7.277-4.581a1.867,1.867,0,0,0-.239.067c-.13.049-.148.067-.127.13.035.123.07.141.183.081a.538.538,0,0,1,.513.018.315.315,0,0,1,.056.38.633.633,0,0,1-.443.179c-.116,0-.123.007-.113.095s.025.1.211.12c.313.035.457.162.457.4a.362.362,0,0,1-.2.327.789.789,0,0,1-.531-.011c-.141-.06-.179-.042-.193.084-.011.067.014.091.13.134A1.028,1.028,0,0,0,7.886-2.7a.536.536,0,0,0-.162-.893l-.1-.035.1-.063a.462.462,0,0,0,.014-.823A.942.942,0,0,0,7.277-4.581Z"/><path class="a" d="M12.625-4.57a1.125,1.125,0,0,0-.96,1.209c0,.461.243.805.587.83a.654.654,0,0,0,.689-.33.742.742,0,0,0-.116-.854.621.621,0,0,0-.819.011c-.063.067-.063.063-.042-.056a.8.8,0,0,1,.689-.587c.176-.021.179-.021.179-.137a.489.489,0,0,0-.007-.116C12.818-4.6,12.73-4.584,12.625-4.57Zm.018,1.037a.52.52,0,0,1-.179.788c-.25.07-.478-.12-.524-.432a.386.386,0,0,1,.45-.468A.3.3,0,0,1,12.642-3.533Z"/><path class="a" d="M15.405-4.563a.532.532,0,0,0-.411.615.6.6,0,0,0,.158.225l.134.13-.123.081a.512.512,0,0,0-.116.788.672.672,0,0,0,.527.2.667.667,0,0,0,.527-.2.389.389,0,0,0,.13-.323.473.473,0,0,0-.236-.5c-.123-.07-.13-.1-.032-.148a.515.515,0,0,0,.207-.4C16.172-4.447,15.827-4.662,15.405-4.563Zm.418.271a.335.335,0,0,1-.1.538c-.095.056-.109.056-.25-.007a.324.324,0,0,1,.127-.633A.29.29,0,0,1,15.824-4.293Zm-.07.868a.365.365,0,0,1,.011.668.4.4,0,0,1-.577-.327.4.4,0,0,1,.225-.366C15.521-3.516,15.581-3.512,15.754-3.424Z"/><path class="a" d="M3.98-4.444c-.19.109-.218.137-.2.2.035.109.039.113.207.028a1.777,1.777,0,0,1,.176-.077c.011,0,.018.394.018.879v.879H4.43V-4.57H4.317A1.022,1.022,0,0,0,3.98-4.444Z"/><path class="a" d="M8.814-3.934a2.548,2.548,0,0,0-.446.738v.1h.914v.563h.246v-.562h.141c.134,0,.141-.007.141-.105S9.8-3.3,9.668-3.3H9.527V-4.57H9.257Zm.468.155V-3.3H8.965a1.281,1.281,0,0,1-.316-.021c0-.011.109-.172.243-.359s.267-.394.306-.457a.82.82,0,0,1,.074-.112C9.278-4.254,9.281-4.039,9.281-3.779Z"/><path class="a" d="M10.3-4.546c0,.018-.025.186-.053.38s-.053.4-.053.468v.12l.141-.025a.57.57,0,0,1,.686.348.459.459,0,0,1-.2.443.725.725,0,0,1-.577.018c-.109-.046-.123-.046-.137,0-.011.028-.025.077-.035.105-.025.081.211.162.461.165a.694.694,0,0,0,.749-.531.674.674,0,0,0,.021-.193c-.007-.021-.021-.081-.032-.134a.63.63,0,0,0-.32-.362,1.538,1.538,0,0,0-.313-.07c-.218-.028-.211-.018-.176-.327l.025-.183h.763V-4.57h-.475A2.286,2.286,0,0,0,10.3-4.546Z"/><path class="a" d="M13.359-4.447v.123h.475a4.245,4.245,0,0,1,.475.014c0,.007-.19.4-.422.882s-.422.875-.422.882a.345.345,0,0,0,.134.014h.134l.45-.946a8.694,8.694,0,0,0,.436-1.009c-.011-.063-.06-.067-.636-.077l-.622-.007Z"/></g></svg>