<svg xmlns="http://www.w3.org/2000/svg" width="16.755" height="19" viewBox="0 0 16.755 19">
  <g id="bill-_1_" transform="translate(-1.575 19.458)">
    <path id="Path_101" data-name="Path 101" d="M2.715-19.424a1.755,1.755,0,0,0-1.094,1.083c-.023.115-.046,3.019-.046,6.456v6.244l.126.229a1.465,1.465,0,0,0,1.226.773c.4,0,.642-.315.481-.624-.092-.189-.189-.235-.464-.235a.438.438,0,0,1-.338-.143L2.463-5.78v-6.192c0-6.885-.029-6.393.384-6.564a.7.7,0,0,1,.687.034c.39.235.361-.424.361,8.861,0,8.226,0,8.415.115,8.592.137.229.2.263.876.441A2.478,2.478,0,0,0,6.5-.6L7.046-.75,7.59-.6a2.481,2.481,0,0,0,1.6,0l.561-.143.561.143a2.447,2.447,0,0,0,1.592,0l.561-.143.561.143a2.464,2.464,0,0,0,1.6,0l.544-.149.544.149a4.3,4.3,0,0,0,.808.143,5.387,5.387,0,0,0,1.5-.384c.321-.212.3.3.3-8.833,0-8.271,0-8.426-.115-8.724a1.848,1.848,0,0,0-.745-.882l-.252-.166-7.16-.011C6.118-19.458,2.812-19.447,2.715-19.424Zm14.337.922a.923.923,0,0,1,.286.269c.1.149.1.55.1,8.432v8.277l-.458.1-.458.109-.67-.155-.676-.155-.676.155-.67.155-.659-.155a2.563,2.563,0,0,0-1.673.057,1.366,1.366,0,0,1-.773,0A2.579,2.579,0,0,0,9.05-1.466l-.659.155-.676-.155-.67-.155-.676.155-.67.155-.458-.109-.458-.1L4.754-9.938c-.023-6.713-.046-8.449-.1-8.552l-.074-.126h6.146C16.715-18.616,16.875-18.61,17.052-18.5Z"/>
    <path id="Path_102" data-name="Path 102" d="M14.91-17.3a1.208,1.208,0,0,1-.281.195,1.321,1.321,0,0,0-.332.269.629.629,0,0,0-.149.516.62.62,0,0,0,.172.538,1.544,1.544,0,0,0,.372.286c.172.086.2.126.2.292,0,.218-.1.269-.229.115a.357.357,0,0,0-.487.029c-.178.195-.137.453.109.664a1.066,1.066,0,0,0,.378.212.731.731,0,0,1,.286.155.268.268,0,0,0,.441-.017,1.135,1.135,0,0,1,.321-.235.966.966,0,0,0,.435-1.163,1.04,1.04,0,0,0-.516-.533c-.137-.057-.166-.1-.166-.263,0-.183.006-.189.143-.137a.371.371,0,0,0,.453-.143,1,1,0,0,0,.034-.258.47.47,0,0,0-.43-.4.366.366,0,0,1-.229-.115A.377.377,0,0,0,14.91-17.3Z"/>
    <path id="Path_103" data-name="Path 103" d="M5.8-17.207c-.126.086-.126.1-.126,1.484v1.4l.149.115c.126.1.235.12.607.12.647,0,.922-.08,1.163-.349.195-.212.2-.241.2-.659a.934.934,0,0,0-.109-.59c-.1-.132-.1-.166-.029-.292a1.485,1.485,0,0,0,.08-.47.618.618,0,0,0-.155-.51c-.229-.269-.447-.338-1.088-.338A1.342,1.342,0,0,0,5.8-17.207Zm1.065.75c.086.16.017.246-.195.246-.178,0-.195-.017-.195-.172s.017-.172.172-.172A.241.241,0,0,1,6.862-16.457ZM6.92-15.4a.438.438,0,0,1,.034.412c-.023.063-.109.092-.258.092H6.473v-.286c0-.286,0-.286.189-.286A.434.434,0,0,1,6.92-15.4Z"/>
    <path id="Path_104" data-name="Path 104" d="M7.962-17.184c-.109.109-.115.189-.115,1.455,0,1.226.011,1.352.109,1.472a.479.479,0,0,0,.624.034c.086-.092.1-.258.115-1.443l.017-1.346-.143-.143A.428.428,0,0,0,7.962-17.184Z"/>
    <path id="Path_105" data-name="Path 105" d="M8.947-17.184c-.12.115-.126.155-.126,1.484,0,1.7-.074,1.575.974,1.6.67.017.745.011.848-.092s.12-.109.206-.017a3.4,3.4,0,0,0,1.661.034.465.465,0,0,0,.086-.538c-.08-.137-.115-.149-.55-.166l-.47-.017-.017-1.117c-.017-1.191-.017-1.18-.321-1.26a.37.37,0,0,0-.458.178,5.6,5.6,0,0,0-.069,1.243c0,.853-.017,1.083-.069,1.031a1.172,1.172,0,0,0-.516-.069H9.68V-15.97A8.216,8.216,0,0,0,9.635-17.1.491.491,0,0,0,8.947-17.184Z"/>
    <path id="Path_106" data-name="Path 106" d="M5.442-11.273a.37.37,0,0,0,.1.55l.143.126,3.695-.011,3.695-.017.109-.137a.393.393,0,0,0-.011-.544l-.115-.149h-7.5Z"/>
    <path id="Path_107" data-name="Path 107" d="M13.862-11.342a.455.455,0,0,0,.006.607c.109.1.235.109,1.071.126,1.037.023,1.163.006,1.329-.16a.38.38,0,0,0-.006-.538l-.115-.149H15.059C14.051-11.456,13.971-11.45,13.862-11.342Z"/>
    <path id="Path_108" data-name="Path 108" d="M5.47-9.05a.457.457,0,0,0,.006.579c.115.109.206.115,3.866.109,3.746,0,3.746,0,3.849-.12a.441.441,0,0,0-.017-.567c-.115-.115-.189-.115-3.855-.115C5.636-9.165,5.573-9.165,5.47-9.05Z"/>
    <path id="Path_109" data-name="Path 109" d="M13.862-9.05a.446.446,0,0,0-.023.561c.086.12.115.126,1.2.126,1.2,0,1.249-.011,1.323-.326a.324.324,0,0,0-.074-.292l-.115-.155-1.094-.017C14.039-9.165,13.971-9.159,13.862-9.05Z"/>
    <path id="Path_110" data-name="Path 110" d="M5.642-6.874a.435.435,0,0,0-.172.687c.1.115.166.115,3.838.115h3.735l.12-.132a.4.4,0,0,0-.143-.659C12.871-6.942,5.831-6.954,5.642-6.874Z"/>
    <path id="Path_111" data-name="Path 111" d="M13.994-6.874a.444.444,0,0,0-.132.687c.109.109.189.115,1.191.115,1.054,0,1.083-.006,1.2-.132.172-.183.16-.361-.04-.561l-.166-.166-.968.006A7.1,7.1,0,0,0,13.994-6.874Z"/>
    <path id="Path_112" data-name="Path 112" d="M5.522-4.508A.426.426,0,0,0,5.47-3.9c.1.115.166.115,3.838.115h3.735l.12-.132a.4.4,0,0,0-.017-.584l-.137-.143H5.677Z"/>
  </g>
</svg>
