<svg xmlns="http://www.w3.org/2000/svg" width="24.989" height="25" viewBox="0 0 24.989 25"><defs><style>.a{fill:#00810d;}</style></defs><g transform="translate(0 25)"><path class="a" d="M2.134-22.861,0-20.728V0H20.166V-5.493l2.2-2.2c1.211-1.211,2.266-2.295,2.344-2.417a1.827,1.827,0,0,0,.1-1.777,1.822,1.822,0,0,0-1.929-1c-.527.1-.713.229-1.743,1.255l-.967.957V-25H4.272Zm17.2,5.854v7.168L16.943-7.446,14.556-5.054l-.513,1.807c-.283.991-.508,1.807-.5,1.812s.82-.229,1.812-.518l1.8-.527,1.094-1.094,1.089-1.089V-.83H.83V-20.166h4v-4h14.5ZM4.043-22.28l-.015,1.309-1.3.015a12.5,12.5,0,0,1-1.309-.024c0-.049,2.554-2.6,2.6-2.6A12.436,12.436,0,0,1,4.043-22.28Zm19.7,10.352a1.079,1.079,0,0,1,.356,1.25,3.936,3.936,0,0,1-.83.913,7.68,7.68,0,0,1-.762-.708l-.708-.713.415-.4c.464-.454.62-.527,1.045-.5A.764.764,0,0,1,23.745-11.929Zm-2.271,1.543.205.205L18.8-7.3,15.918-4.419l-.22-.22-.22-.22,2.866-2.866c1.577-1.582,2.881-2.871,2.9-2.871A1.3,1.3,0,0,1,21.475-10.386Zm1,1a.678.678,0,0,1,.186.239c0,.029-1.289,1.338-2.866,2.9L16.929-3.413l-.215-.21-.21-.21L19.37-6.7c1.577-1.582,2.881-2.871,2.9-2.871A1.8,1.8,0,0,1,22.471-9.39Zm-6.8,5.845c.415.415.488.513.415.532a11.98,11.98,0,0,1-1.333.366,8.444,8.444,0,0,1,.381-1.406A6.352,6.352,0,0,1,15.669-3.545Z"/><path class="a" d="M7.129-23.311A2.009,2.009,0,0,0,5.85-22.227l-.161.327v4.3l.156.322a2.075,2.075,0,0,0,1.538,1.123c.19.029,2.1.044,4.922.034l4.614-.015.288-.107a2.12,2.12,0,0,0,1.221-1.206c.1-.234.1-.352.117-2.144a21.044,21.044,0,0,0-.039-2.148,2.038,2.038,0,0,0-1.553-1.592c-.181-.039-1.68-.054-4.907-.049A48.356,48.356,0,0,0,7.129-23.311Zm10.039.923a1.32,1.32,0,0,1,.386.386l.146.239.015,1.934a9.067,9.067,0,0,1-.063,2.139A1.468,1.468,0,0,1,16.9-17c-.142.044-1.392.059-4.854.059H7.393l-.254-.127a1.439,1.439,0,0,1-.4-.3c-.288-.352-.3-.444-.283-2.48.015-1.8.02-1.855.122-2.051a1.552,1.552,0,0,1,.62-.586c.122-.054,1.011-.063,4.941-.054l4.79.01Z"/><path class="a" d="M7.275-19.751v1.2H9.668v-2.393H7.275Zm1.6-.015-.015.405-.4.015-.405.015v-.835h.835Z"/><path class="a" d="M10.889-19.751v1.2H13.33v-2.393H10.889Zm1.611,0v.42l-.4-.015-.405-.015L11.68-19.7a1.824,1.824,0,0,1,.01-.405c.02-.044.137-.063.42-.063H12.5Z"/><path class="a" d="M14.5-19.751v1.2h2.441v-2.393H14.5Zm1.611,0v.415h-.781v-.83h.781Z"/><path class="a" d="M7.349-14.688c-.444.493-.84.913-.874.938s-.132-.01-.278-.137a3.045,3.045,0,0,0-.557-.347,2.81,2.81,0,0,0-3.931,1.855,2.6,2.6,0,0,0,0,1.367,2.808,2.808,0,0,0,2.72,2.124A2.56,2.56,0,0,0,5.64-9.155a2.8,2.8,0,0,0,1.411-3.569l-.122-.312.742-.82c.41-.449.82-.9.918-1l.171-.186-.171-.176a2.339,2.339,0,0,0-.3-.269l-.132-.093Zm-2.2,1.113a1.868,1.868,0,0,1,.713.483c0,.034-1.03,1.2-1.367,1.538l-.137.137-.439-.3c-.244-.166-.454-.3-.464-.3a2.043,2.043,0,0,0-.4.679c.107.1,1.392.933,1.431.933a11.811,11.811,0,0,0,.942-.981l.894-.981.063.215a1.727,1.727,0,0,1,.044.586,2.013,2.013,0,0,1-1.68,1.855A2.044,2.044,0,0,1,2.622-10.84a1.385,1.385,0,0,1-.156-.854,1.49,1.49,0,0,1,.132-.82,2.189,2.189,0,0,1,1.382-1.143A2.29,2.29,0,0,1,5.146-13.574Z"/><path class="a" d="M8.887-13.306v.415h9.668v-.83H8.887Z"/><path class="a" d="M8.887-11.694v.415h8.057v-.83H8.887Z"/><path class="a" d="M17.744-12.046a1.824,1.824,0,0,0-.01.405l.015.337.405.015.4.015v-.835h-.391C17.881-12.109,17.764-12.09,17.744-12.046Z"/><path class="a" d="M8.887-10.083v.415h9.668v-.83H8.887Z"/><path class="a" d="M7.4-7.5c-.4.444-.781.864-.84.933l-.107.117L6.143-6.67A2.674,2.674,0,0,0,4.39-7.241a2.634,2.634,0,0,0-1.929.82,2.767,2.767,0,0,0-.547,3.237,3.3,3.3,0,0,0,1.27,1.27,2.827,2.827,0,0,0,3.6-.977,2.774,2.774,0,0,0,.288-2.52c-.054-.156-.1-.3-.107-.332a10.4,10.4,0,0,1,.884-1.04c.488-.537.889-.986.889-1A2.984,2.984,0,0,0,8.179-8.3,10.979,10.979,0,0,0,7.4-7.5ZM4.985-6.367a1.872,1.872,0,0,1,.776.435l.112.117-.386.425c-.21.234-.547.605-.742.82a2.5,2.5,0,0,1-.4.386c-.015,0-.215-.132-.444-.278a3.674,3.674,0,0,0-.444-.273,3.085,3.085,0,0,0-.43.654c.068.059,1.377.918,1.426.938a7.682,7.682,0,0,0,.957-.962c1.03-1.133,1.006-1.123,1.006-.312a1.387,1.387,0,0,1-.156.815,2.039,2.039,0,0,1-.981.981,1.443,1.443,0,0,1-.864.156,1.4,1.4,0,0,1-.83-.142,2.435,2.435,0,0,1-.981-.981,1.4,1.4,0,0,1-.142-.83,1.443,1.443,0,0,1,.156-.864,2.023,2.023,0,0,1,.957-.967A3.3,3.3,0,0,1,4-6.411,2.637,2.637,0,0,1,4.985-6.367Z"/><path class="a" d="M8.887-6.055v.391H13.33v-.781H8.887Z"/><path class="a" d="M8.887-4.443v.391H13.33v-.781H8.887Z"/><path class="a" d="M8.887-2.832v.391H13.33v-.781H8.887Z"/></g></svg>