<?xml version="1.0" standalone="no"?>
<!DOCTYPE svg PUBLIC "-//W3C//DTD SVG 20010904//EN"
 "http://www.w3.org/TR/2001/REC-SVG-20010904/DTD/svg10.dtd">
<svg version="1.0" xmlns="http://www.w3.org/2000/svg"
 width="290.000000pt" height="290.000000pt" viewBox="0 0 290.000000 290.000000"
 preserveAspectRatio="xMidYMid meet">

<g transform="translate(0.000000,290.000000) scale(0.100000,-0.100000)"
fill="#000000" stroke="none">
<path d="M657 2860 c-31 -24 -47 -75 -47 -146 l0 -51 -113 -6 c-72 -5 -135
-14 -172 -27 -118 -41 -209 -120 -262 -229 l-28 -56 -3 -998 -2 -998 34 -74
c45 -98 112 -164 214 -213 l77 -37 306 0 c287 0 308 1 328 19 52 47 30 137
-37 155 -21 6 -146 11 -291 11 -171 0 -267 4 -295 12 -54 16 -128 90 -144 144
-16 55 -17 1879 -1 1937 13 49 73 115 124 138 31 14 65 19 151 19 l111 0 5
-76 c8 -117 58 -167 133 -131 44 21 55 49 55 138 l0 69 275 0 275 0 0 -76 c0
-73 1 -77 34 -110 42 -42 75 -44 118 -5 31 28 33 33 36 110 l4 81 273 0 272 0
5 -82 c5 -76 7 -83 37 -110 34 -31 56 -34 96 -16 39 18 55 57 55 138 l0 70
118 0 c133 0 174 -13 229 -71 35 -37 63 -95 63 -131 0 -13 5 -40 11 -60 17
-64 91 -88 144 -47 26 21 27 24 23 108 -4 102 -33 171 -104 250 -87 96 -190
138 -366 148 l-118 6 0 69 c0 79 -16 118 -55 136 -40 18 -62 15 -96 -16 -30
-27 -32 -34 -37 -110 l-5 -82 -272 0 -273 0 -4 81 c-3 77 -5 82 -36 110 -43
39 -76 37 -118 -5 -33 -33 -34 -37 -34 -110 l0 -76 -275 0 -275 0 0 69 c0 86
-11 116 -49 136 -40 20 -63 19 -94 -5z"/>
<path d="M1765 1895 c-190 -35 -379 -136 -514 -275 -123 -127 -220 -317 -251
-490 -15 -82 -15 -247 -1 -327 33 -179 119 -347 251 -486 115 -123 263 -211
440 -263 85 -25 111 -28 240 -28 127 -1 157 3 242 26 111 31 229 87 252 120
25 35 20 80 -11 110 -45 40 -58 41 -140 3 -106 -50 -217 -75 -336 -75 -132 0
-233 22 -342 76 -189 92 -326 251 -392 454 -25 77 -28 98 -28 225 1 118 4 152
24 215 66 212 206 376 402 471 199 97 479 93 674 -9 116 -61 254 -183 255
-224 0 -16 -11 -18 -87 -18 -49 0 -104 -5 -124 -10 -68 -19 -90 -94 -45 -147
l24 -28 174 0 c168 0 174 1 223 27 63 33 120 90 151 150 23 45 24 57 24 227 0
174 -1 181 -22 201 -46 42 -101 36 -135 -16 -13 -20 -18 -53 -21 -128 -2 -56
-8 -105 -13 -110 -5 -6 -41 22 -91 71 -151 146 -315 230 -518 262 -85 14 -218
12 -305 -4z"/>
<path d="M1890 1387 c-43 -22 -50 -50 -50 -222 l-1 -160 -79 -65 c-97 -80
-118 -119 -90 -171 15 -28 68 -52 98 -44 13 3 74 47 133 97 134 111 132 107
127 346 l-3 174 -33 29 c-35 31 -63 36 -102 16z"/>
<path d="M2737 989 c-11 -6 -25 -26 -33 -45 -38 -90 76 -164 146 -94 14 14 20
34 20 64 0 36 -5 48 -26 65 -29 23 -78 27 -107 10z"/>
<path d="M2579 549 c-18 -19 -29 -42 -29 -59 0 -37 49 -90 84 -90 41 0 74 20
91 56 18 39 9 72 -31 103 -39 31 -80 27 -115 -10z"/>
</g>
</svg>
