<?xml version="1.0" encoding="utf-8"?>
<!-- Generator: Adobe Illustrator 16.0.0, SVG Export Plug-In . SVG Version: 6.00 Build 0)  -->
<!DOCTYPE svg PUBLIC "-//W3C//DTD SVG 1.1//EN" "http://www.w3.org/Graphics/SVG/1.1/DTD/svg11.dtd">
<svg version="1.1" id="Layer_1" xmlns="http://www.w3.org/2000/svg" xmlns:xlink="http://www.w3.org/1999/xlink" x="0px" y="0px"
	 width="512px" height="512px" viewBox="0 0 512 512" enable-background="new 0 0 512 512" xml:space="preserve">
<g transform="translate(0.000000,832.000000) scale(0.100000,-0.100000)">
	<path fill="#344DA1" d="M433.872,7859.354c-74.146-15.742-150.835-56.372-209.243-110.708
		c-60.947-56.382-105.127-127.48-129.507-207.222c-11.177-36.563-11.177-44.688-15.234-410.361
		c-7.114-625.195-10.156-2769.443-4.575-2821.767c29.458-255.957,233.623-462.656,489.082-494.658
		c27.939-3.545,449.473-5.078,1243.281-5.078c745.561,0,1203.662-2.031,1206.201-4.57c9.131-8.633,120.361-56.875,180.293-77.197
		c105.645-36.572,208.232-58.916,324.541-71.104c74.141-7.607,269.678-3.057,337.217,7.617
		c214.834,34.541,394.121,103.604,564.766,217.373c91.416,60.947,141.182,101.582,220.928,181.826
		c329.609,330.615,470.283,798.378,378.369,1256.972c-35.557,176.25-105.645,346.895-202.139,491.636
		c-36.055,53.833-55.371,79.229-113.77,150.84l-11.162,13.711l-2.041,393.096c-1.523,377.354-2.031,394.619-12.188,436.27
		c-28.955,116.802-78.213,203.145-162.52,284.912c-69.072,67.041-152.871,114.272-247.842,140.679l-50.791,13.721l-888.779,2.534
		c-488.574,1.528-892.837,4.57-897.915,7.109c-20.83,10.156-23.882,27.935-23.882,134.082c0,83.296-1.519,107.671-9.644,139.663
		c-43.174,167.095-178.267,296.089-346.885,330.625c-35.034,7.109-124.424,8.125-810.058,7.622
		C580.142,7866.464,464.351,7865.448,433.872,7859.354z M2042.314,7602.372c57.891-26.919,102.085-82.783,115.288-145.249
		c3.042-14.736,5.586-55.366,5.586-89.897c0-70.083,11.675-167.09,23.359-198.071c13.711-35.552,52.314-92.432,78.721-116.304
		c14.224-12.695,38.604-29.453,54.341-37.075l28.955-14.214l921.797-2.544c836.465-2.534,923.818-3.555,944.648-10.664
		c92.422-33.521,152.354-83.799,190.449-158.965c35.039-70.088,34.541-63.486,36.572-359.575
		c1.514-147.788,0.498-268.159-2.031-268.159c-2.051,0-27.939,15.239-57.402,33.525
		c-163.027,101.567-364.141,171.655-581.513,203.145c-74.141,10.664-254.951,12.188-330.117,2.539
		c-312.842-39.111-581.006-167.085-801.426-381.416c-224.99-218.384-356.528-473.853-407.822-790.757
		c-12.188-78.223-15.234-263.076-5.078-349.424c20.82-180.303,74.648-357.031,155.913-514.482
		c56.875-110.713,122.402-203.135,225.493-319.961l23.877-26.406l-1042.671,1.016c-998.984,1.523-1044.189,2.041-1071.108,10.664
		c-107.158,36.064-184.36,114.268-216.865,219.395c-8.628,29.473-9.141,78.232-8.125,1229.062
		c0.513,659.229,2.544,1368.73,5.078,1576.963l4.063,378.364l13.716,27.935c26.411,52.813,64.502,87.861,117.319,107.163
		c25.391,9.141,55.356,9.141,788.218,8.13l761.821-1.025L2042.314,7602.372z M3821.396,6178.798
		c209.756-32.505,394.101-121.382,565.263-271.206c17.783-15.737,80.762-82.783,140.186-148.804
		c90.391-101.074,111.719-127.471,132.549-167.607c67.539-126.973,105.635-241.748,130.527-392.588
		c10.156-62.461,8.623-250.898-2.539-319.951c-61.465-378.877-293.047-694.775-630.781-860.859
		c-171.67-84.297-344.844-121.387-542.92-115.283c-132.559,3.555-191.992,15.244-269.678,52.314
		c-33.525,15.742-101.074,47.236-150.332,70.596c-154.902,72.617-247.852,135.088-350.957,235.146
		c-101.055,98.008-166.572,188.926-228.027,313.359c-74.653,152.861-106.143,293.037-106.143,473.33
		c0,179.785,36.567,337.734,116.816,501.787c59.922,123.408,130.01,219.404,234.111,319.966
		c193.008,186.392,420.029,289.487,702.91,319.448C3604.023,6192.514,3772.646,6186.42,3821.396,6178.798z"/>
	<path fill="#344DA1" d="M4054.765,5199.364l-224.98,200.605l-1.533-139.15l-1.025-138.662l-407.813-1.006l-407.314-1.533
		l-1.533-122.9l-1.006-123.408l407.314-1.025l407.813-1.514l2.539-142.705l2.559-143.232l223.457,202.637
		c122.91,111.729,223.965,204.678,224.98,206.699C4278.74,4996.718,4178.173,5088.642,4054.765,5199.364z"/>
</g>
<g>
	<path fill="#344DA1" d="M161.703,154.719H74.099c-3.866,0-7-3.134-7-7s3.134-7,7-7h87.604c3.866,0,7,3.134,7,7
		S165.569,154.719,161.703,154.719z"/>
</g>
<g>
	<path fill="#344DA1" d="M243.521,202.57H74.099c-3.866,0-7-3.134-7-7s3.134-7,7-7h169.421c3.866,0,7,3.134,7,7
		S247.387,202.57,243.521,202.57z"/>
</g>
</svg>
