<svg xmlns="http://www.w3.org/2000/svg" width="18.951" height="19" viewBox="0 0 18.951 19">
  <g id="home-_4_" transform="translate(-0.087 19.04)">
    <path id="Path_90" data-name="Path 90" d="M8.8-18.883c-.458.225-8.429,8.22-8.6,8.614A2.175,2.175,0,0,0,.233-8.791a1.829,1.829,0,0,0,1.6,1h.249l.024,3.158c.024,3.062.032,3.158.2,3.479a2.468,2.468,0,0,0,1.053.972,6.413,6.413,0,0,0,2.17.137l1.88.008.153-.193c.145-.177.153-.346.153-2.612,0-2.644.008-2.684.474-3,.249-.169.362-.185,1.374-.185s1.125.016,1.374.185c.466.313.474.354.474,3,0,2.266.008,2.435.153,2.612.153.193.161.193,1.993.193h1.832l.482-.241a2.1,2.1,0,0,0,1.085-1.229c.048-.177.08-1.479.08-3.295V-7.794h.249a1.832,1.832,0,0,0,1.607-1,2.175,2.175,0,0,0,.032-1.479c-.169-.41-8.14-8.389-8.606-8.614A1.918,1.918,0,0,0,8.8-18.883Zm5.095,5.014c3.68,3.68,4.05,4.074,4.05,4.315a.554.554,0,0,1-.217.45c-.185.161-.305.185-.82.185-.53,0-.627.024-.8.2l-.2.193v3.367c0,3.335,0,3.375-.177,3.592-.3.378-.579.442-1.953.442H12.535V-3.134a21.944,21.944,0,0,0-.088-2.411A2.014,2.014,0,0,0,11.41-6.862l-.442-.249H8.156l-.442.249A2.014,2.014,0,0,0,6.678-5.545a21.944,21.944,0,0,0-.088,2.411v2.009H5.344c-1.4,0-1.76-.088-1.993-.474-.121-.209-.137-.579-.137-3.576V-8.526l-.2-.193c-.169-.177-.265-.2-.8-.2-.514,0-.635-.024-.82-.185a.554.554,0,0,1-.217-.45c0-.241.37-.635,4.05-4.315,3.809-3.809,4.066-4.05,4.331-4.05S10.085-17.678,13.893-13.869Z"/>
  </g>
</svg>
