<svg xmlns="http://www.w3.org/2000/svg" xmlns:xlink="http://www.w3.org/1999/xlink" width="20" height="20" viewBox="0 0 20 20">
  <defs>
    <clipPath id="clip-path">
      <rect id="Rectangle_31" data-name="Rectangle 31" width="20" height="20" transform="translate(0.096)" fill="#fff"/>
    </clipPath>
  </defs>
  <g id="Mask_Group_1" data-name="Mask Group 1" transform="translate(-0.096)" clip-path="url(#clip-path)">
    <g id="_4177633_cv_document_resume_resum_summary_icon" data-name="4177633_cv_document_resume_resum_summary_icon" transform="translate(2.143 0)">
      <path id="Path_13" data-name="Path 13" d="M19.043,6.879a.179.179,0,0,1,0-.05,3.057,3.057,0,0,0-.564-.821L14.707,2.264a2.857,2.857,0,0,0-2.021-.836H5.714A2.143,2.143,0,0,0,3.571,3.571V19.286a2.143,2.143,0,0,0,2.143,2.143H17.143a2.143,2.143,0,0,0,2.143-2.143V8.029A2.857,2.857,0,0,0,19.043,6.879ZM14.286,3.864,16.85,6.429H15a.714.714,0,0,1-.714-.714Zm3.571,15.421a.714.714,0,0,1-.714.714H5.714A.714.714,0,0,1,5,19.286V3.571a.714.714,0,0,1,.714-.714h7.143V5.714A2.143,2.143,0,0,0,15,7.857h2.857a1.386,1.386,0,0,1,0,.171Z" transform="translate(-3.571 -1.429)" fill="#cc7400"/>
      <path id="Path_14" data-name="Path 14" d="M15.714,9.286H13.571a.714.714,0,0,0,0,1.429h2.143a.714.714,0,0,0,0-1.429Z" transform="translate(-3.571 -1.429)" fill="#cc7400"/>
      <path id="Path_15" data-name="Path 15" d="M15.714,12.857H7.143a.714.714,0,1,0,0,1.429h8.571a.714.714,0,0,0,0-1.429Z" transform="translate(-3.571 -1.429)" fill="#cc7400"/>
      <path id="Path_16" data-name="Path 16" d="M15.714,15.714H7.143a.714.714,0,0,0,0,1.429h8.571a.714.714,0,0,0,0-1.429Z" transform="translate(-3.571 -1.429)" fill="#cc7400"/>
      <path id="Path_17" data-name="Path 17" d="M7.143,11.429a.714.714,0,0,0,.714-.714,1.507,1.507,0,0,1,.614-.457,1.429,1.429,0,0,0,.6-.293,1.164,1.164,0,0,0,.221,0,1.236,1.236,0,0,0,.229,0,1.429,1.429,0,0,0,.607.293,1.6,1.6,0,0,1,.593.443.714.714,0,0,0,1.421.014c0-.886-.929-1.464-1.379-1.671A3.029,3.029,0,0,0,11.071,7.5,1.857,1.857,0,0,0,9.286,5.714,1.857,1.857,0,0,0,7.5,7.5a3.029,3.029,0,0,0,.307,1.543c-.45.243-1.379.786-1.379,1.671A.714.714,0,0,0,7.143,11.429ZM9.286,7.143a.457.457,0,0,1,.357.357c0,.536,0,.786-.329,1.1H9.286c-.314-.314-.329-.564-.329-1.1a.457.457,0,0,1,.329-.357Z" transform="translate(-3.571 -1.429)" fill="#cc7400"/>
    </g>
  </g>
</svg>
