<svg xmlns="http://www.w3.org/2000/svg" width="19" height="19" viewBox="0 0 19 19">
  <g id="People" transform="translate(0)">
    <g id="Icon-23">
      <path id="chemistry-tubes" d="M15.843,13.617a.317.317,0,0,0-.317-.317h0a.317.317,0,1,0,.32.317Zm-7.286.317a.317.317,0,1,0,.32.317.315.315,0,0,0-.32-.317Zm1.587-1.583a.317.317,0,0,0-.317-.317h0a.317.317,0,1,0,.32.317Zm5.691-5.383a.633.633,0,1,0,.633-.633.634.634,0,0,0-.633.633ZM3.167,7.6A.633.633,0,1,0,3.8,6.967a.634.634,0,0,0-.633.633ZM2.533,2.217A.317.317,0,1,0,2.85,1.9a.317.317,0,0,0-.317.317Zm-.633,0a.95.95,0,1,1,.95.95.951.951,0,0,1-.95-.95Zm7.6-.95a.633.633,0,1,0,.633-.633.634.634,0,0,0-.633.633Zm-.633,0a1.267,1.267,0,1,1,1.267,1.267A1.268,1.268,0,0,1,8.867,1.267ZM4.117,15.833a.317.317,0,0,0-.317.317.634.634,0,0,1-.633.633.317.317,0,1,0,0,.633A1.268,1.268,0,0,0,4.433,16.15a.317.317,0,0,0-.317-.317Zm11.717,1.583A1.268,1.268,0,0,0,17.1,16.15a.317.317,0,1,0-.633,0,.634.634,0,0,1-.633.633.317.317,0,1,0,0,.633ZM9.183,17.1a.317.317,0,0,0,.317.317,1.268,1.268,0,0,0,1.267-1.267.317.317,0,0,0-.633,0,.634.634,0,0,1-.633.633.317.317,0,0,0-.317.317ZM19,4.75a.317.317,0,0,1-.317.317h-4.75V11.4h2.85a.317.317,0,1,1,0,.633h-2.85v4.433a1.9,1.9,0,0,0,3.8,0V6.017a.317.317,0,1,1,.633,0v10.45a2.533,2.533,0,0,1-5.067,0V5.067H7.6v3.8h2.85a.317.317,0,0,1,0,.633H7.6v6.967a1.9,1.9,0,0,0,3.8,0V6.017a.317.317,0,1,1,.633,0v10.45a2.533,2.533,0,0,1-5.067,0V5.067h-5.7v5.067h2.85a.317.317,0,1,1,0,.633H1.267v5.7a1.9,1.9,0,0,0,3.8,0V6.017a.317.317,0,0,1,.633,0v10.45a2.533,2.533,0,0,1-5.067,0V5.067H.317a.317.317,0,1,1,0-.633H.633V2.85a.317.317,0,0,1,.633,0V4.433h3.8V2.85a.317.317,0,0,1,.633,0V4.433H6.967V2.85a.317.317,0,0,1,.633,0V4.433h3.8V2.85a.317.317,0,0,1,.633,0V4.433H13.3V2.85a.317.317,0,0,1,.633,0V4.433h3.8V2.85a.317.317,0,1,1,.633,0V4.433h.317A.317.317,0,0,1,19,4.75Z"/>
    </g>
  </g>
</svg>
