<svg xmlns="http://www.w3.org/2000/svg" width="17.392" height="18" viewBox="0 0 17.392 18"><defs><style>.a{fill:#fff;}</style></defs><g transform="translate(-8.488 512)"><path class="a" d="M265.587-511.891a.654.654,0,0,0-.345.647,2.792,2.792,0,0,0,.425.921,9.04,9.04,0,0,0,.529.836.7.7,0,0,0,1.138-.212c.137-.26.071-.472-.415-1.313s-.633-.987-.982-.987A.808.808,0,0,0,265.587-511.891Z" transform="translate(-248.038)"/><path class="a" d="M378.328-511.766a1.581,1.581,0,0,0-.222.179,12.126,12.126,0,0,0-.916,1.653.712.712,0,0,0,.935.76c.241-.1.331-.217.779-1,.425-.741.486-.94.392-1.228A.712.712,0,0,0,378.328-511.766Z" transform="translate(-356.179 -0.149)"/><path class="a" d="M19.336-432.82a1.178,1.178,0,0,0-.39.254,1.066,1.066,0,0,0-.348.761,3.771,3.771,0,0,1-.482,1.424,7.75,7.75,0,0,1-3.653,2.871l-.39.185-.018-.208a.527.527,0,0,0-.253-.458l-.109-.073-2.374-.01-2.374-.007-.158.073a.608.608,0,0,0-.229.191c-.07.115-.07.158-.07,4.466,0,4.845-.021,4.466.236,4.638l.116.076,1.793.01c1.952.01,2.117,0,2.479-.162a1.919,1.919,0,0,0,.689-.573.356.356,0,0,1,.084-.115c.014,0,.158.053.324.112a11.006,11.006,0,0,0,2.637.63,35.819,35.819,0,0,0,4.177.109,10.5,10.5,0,0,0,2.581-.086,1.53,1.53,0,0,0,1.02-2.037l-.091-.214.232-.2a1.449,1.449,0,0,0,.425-1.694l-.095-.218.225-.194a1.454,1.454,0,0,0,.253-2.014,1.247,1.247,0,0,1-.12-.185.476.476,0,0,1,.088-.115,1.4,1.4,0,0,0,.338-.949,1.549,1.549,0,0,0-1.3-1.5,14.677,14.677,0,0,0-1.786-.046H21.242l.169-.323a4.158,4.158,0,0,0,.517-2.024,2.08,2.08,0,0,0-.222-1.305,2.162,2.162,0,0,0-1.442-1.094A1.66,1.66,0,0,0,19.336-432.82Zm.907,1.038a1.232,1.232,0,0,1,.573.6c.067.175.074.227.053.715a3.246,3.246,0,0,1-.2,1.173,6.585,6.585,0,0,1-.545,1.042l-.116.171-.51.01c-.549.01-.608.03-.767.227a.463.463,0,0,0,.179.682l.137.073H21.7a13.846,13.846,0,0,1,2.8.063.5.5,0,0,1,.324.481.37.37,0,0,1-.07.31c-.176.244-.193.247-1.041.267-.728.016-.767.02-.879.092a.491.491,0,0,0-.225.432.432.432,0,0,0,.253.389c.109.073.151.076.752.076a6.361,6.361,0,0,1,.767.033.6.6,0,0,1,.4.346.5.5,0,0,1-.056.5c-.137.208-.214.224-1.02.244-.643.013-.735.023-.844.082a.485.485,0,0,0-.183.686c.116.171.26.221.647.221a1.287,1.287,0,0,1,.693.122.73.73,0,0,1,.25.455.649.649,0,0,1-.25.448c-.105.069-.169.079-.6.1-.408.016-.5.03-.58.086a.474.474,0,0,0-.07.791.855.855,0,0,0,.341.125c.306.059.447.145.534.326a.457.457,0,0,1-.011.481.588.588,0,0,1-.531.313c-.355.036-5.271,0-5.686-.046a10.988,10.988,0,0,1-3.1-.725l-.239-.1v-5.725l.52-.237a11.681,11.681,0,0,0,3.365-2.1,7.574,7.574,0,0,0,.693-.742,5.09,5.09,0,0,0,1-2.307c.039-.313.035-.307.239-.287A1.524,1.524,0,0,1,20.244-431.782ZM13-423.618c0,2.423,0,3.5-.032,3.589a.6.6,0,0,1-.4.382,2.418,2.418,0,0,1-.447.036h-.306l-.011-.88c-.011-.85-.014-.887-.091-1a.54.54,0,0,0-.809-.082l-.13.119-.018.916-.018.913-.587.01-.591.007v-7.482l1.716.007,1.712.01Z" transform="translate(0 -75.376)"/><path class="a" d="M201.585-400.773a.665.665,0,0,0-.345.666.637.637,0,0,0,.368.562c.137.071.3.085,1.081.085,1.053,0,1.166-.028,1.36-.359a.691.691,0,0,0-.246-.935c-.118-.09-.2-.1-1.081-.113C201.807-400.877,201.76-400.872,201.585-400.773Z" transform="translate(-186.302 -107.305)"/><path class="a" d="M425.449-400.934a.788.788,0,0,0-.449.652.821.821,0,0,0,.373.595c.17.1.246.1,1.1.1.779,0,.94-.014,1.081-.085a.7.7,0,0,0,0-1.242c-.142-.08-.279-.09-1.062-.09A4.267,4.267,0,0,0,425.449-400.934Z" transform="translate(-402.807 -107.18)"/></g></svg>