<svg xmlns="http://www.w3.org/2000/svg" width="19" height="17.34" viewBox="0 0 19 17.34">
  <g id="logout" transform="translate(-0.035 18.199)">
    <path id="Path_117" data-name="Path 117" d="M7.445-18.112A8.7,8.7,0,0,0,.962-13.465a9.553,9.553,0,0,0-.8,2.273A11.165,11.165,0,0,0,.157-7.855,8.894,8.894,0,0,0,2.491-3.446,8.03,8.03,0,0,0,4.709-1.815,8.048,8.048,0,0,0,8.735-.86a8.384,8.384,0,0,0,6.2-2.662A7.408,7.408,0,0,0,16.29-5.378a.622.622,0,0,0-.416-.594c-.28-.1-.491.061-.894.648a7.644,7.644,0,0,1-4.757,3.207,8.675,8.675,0,0,1-3.085,0,7.593,7.593,0,0,1-4.8-3.31,7.711,7.711,0,0,1-1.181-4.784,7.422,7.422,0,0,1,2.368-4.8,7.254,7.254,0,0,1,5.207-2.047,7.022,7.022,0,0,1,3.453.839,7.829,7.829,0,0,1,2.737,2.416c.416.628.566.771.819.771a.461.461,0,0,0,.4-.212.766.766,0,0,0,.177-.321,6.736,6.736,0,0,0-1.652-2.238A8.682,8.682,0,0,0,7.445-18.112Z"/>
    <path id="Path_118" data-name="Path 118" d="M16.249-11.458c-.28.109-.341.266-.348.826v.532l-5.016.014-5.009.02-.157.15a.587.587,0,0,0,0,.792l.157.15,5.009.02L15.9-8.94v.532c.007.546.055.682.328.826a.382.382,0,0,0,.355.014,17.1,17.1,0,0,0,2.354-1.665.471.471,0,0,0,0-.573,13.879,13.879,0,0,0-2.511-1.72C16.42-11.526,16.338-11.492,16.249-11.458Z"/>
  </g>
</svg>
