<svg xmlns="http://www.w3.org/2000/svg" width="19" height="18.97" viewBox="0 0 19 18.97">
  <g id="deadline" transform="translate(0 18.984)">
    <path id="Path_91" data-name="Path 91" d="M8.669-18.946a5.137,5.137,0,0,0-4.041,3.728,5.378,5.378,0,0,0,0,2.508,5.244,5.244,0,0,0,1.547,2.528l.307.252-.532.211A9.747,9.747,0,0,0,1.043-5.364,8.686,8.686,0,0,0,0-2.242,2.409,2.409,0,0,0,1.281-.225l.388.191H11.736l.2-.225A.7.7,0,0,0,11.722-1.4c-.17-.089-.872-.1-4.982-.1H1.963l-.232-.232c-.286-.286-.3-.484-.055-1.309a7.78,7.78,0,0,1,2.1-3.476,7.94,7.94,0,0,1,5.03-2.358,7.86,7.86,0,0,1,3.7.538c.879.368,1.111.354,1.418-.061a.784.784,0,0,0-.177-1.036L13.1-9.7l-.566-.232.307-.252a5.276,5.276,0,0,0,1.547-2.528,5.565,5.565,0,0,0,0-2.508A5.137,5.137,0,0,0,10.8-18.837,7.056,7.056,0,0,0,8.669-18.946Zm1.724,1.533a3.6,3.6,0,0,1,2.637,3.932,3.6,3.6,0,0,1-2.61,2.951,4.392,4.392,0,0,1-1.813.007A3.626,3.626,0,0,1,5.984-13.48a3.663,3.663,0,0,1,.368-2.126,3.733,3.733,0,0,1,2.242-1.8A4.215,4.215,0,0,1,10.393-17.413Z"/>
    <path id="Path_92" data-name="Path 92" d="M15.273-6.992c-.457.15-.518.32-.538,1.581l-.02,1.118H13.692c-1.118,0-1.4.061-1.595.368a.738.738,0,0,0,.279,1.05,5.105,5.105,0,0,0,1.254.082h1.09v1.056c0,1.227.061,1.465.429,1.642a.719.719,0,0,0,.893-.184c.177-.2.177-.225.177-1.363V-2.794h1.152c1.138,0,1.159,0,1.363-.177a.719.719,0,0,0,.184-.893c-.177-.368-.416-.429-1.642-.429H16.22v-1.09c0-1.179-.048-1.4-.354-1.547A.593.593,0,0,0,15.273-6.992Z"/>
  </g>
</svg>
