<svg xmlns="http://www.w3.org/2000/svg" width="25" height="22.033" viewBox="0 0 25 22.033"><defs><style>.a{fill:#cc8202;}</style></defs><g transform="translate(-0.011 23.525)"><path class="a" d="M10.261-23.5a11.072,11.072,0,0,0-6.127,2.384,13.992,13.992,0,0,0-1.876,1.925A11.01,11.01,0,0,0,.02-12.924a10.994,10.994,0,0,0,1.1,5.248,11.026,11.026,0,0,0,16.55,3.958,5.353,5.353,0,0,0,1.339-1.3.886.886,0,0,0-.4-1.016,1.081,1.081,0,0,0-.7-.024,2.53,2.53,0,0,0-.479.371A9.429,9.429,0,0,1,8.82-3.42a9.352,9.352,0,0,1-7.041-7.671,12.458,12.458,0,0,1-.024-2.663,9.349,9.349,0,0,1,6.162-7.574,9.569,9.569,0,0,1,5.424-.244,9.392,9.392,0,0,1,6.743,6.758,4.656,4.656,0,0,1,.127.586c-.015.01-.679-.43-1.481-.982s-1.5-1.021-1.564-1.051a.981.981,0,0,0-.8.054.826.826,0,0,0-.288,1.06c.122.235-.01.137,2.609,1.925A27.9,27.9,0,0,0,21.04-11.7a.845.845,0,0,0,.645-.142c.156-.107,3.127-4.4,3.264-4.71a.816.816,0,0,0-.371-1.026.771.771,0,0,0-.762-.01c-.186.088-.313.249-1.1,1.412-.494.718-.9,1.3-.909,1.295s-.078-.259-.161-.567A10.69,10.69,0,0,0,18.788-20.3a10.635,10.635,0,0,0-3.826-2.5A11.487,11.487,0,0,0,10.261-23.5Z"/><path class="a" d="M7.407-25.009a.773.773,0,0,0-.49.509.767.767,0,0,0,.134.628l.04.053L3.759-20.486C1.3-18.022.4-17.112.33-17a1.7,1.7,0,0,0-.3,1.024A1.626,1.626,0,0,0,.2-15.2a1.856,1.856,0,0,0,1.176,1,1.348,1.348,0,0,0,.5.055,1.348,1.348,0,0,0,.5-.055,2.219,2.219,0,0,0,.609-.3c.066-.049,1.608-1.574,3.427-3.391,2.941-2.939,3.31-3.3,3.344-3.276a.826.826,0,0,0,.42.149.715.715,0,0,0,.658-1.058c-.036-.07-.486-.532-1.431-1.476a11.662,11.662,0,0,0-1.5-1.423A.8.8,0,0,0,7.407-25.009Zm1.55,1.91c.718.718,1.312,1.323,1.318,1.344a.081.081,0,0,1-.075.1c-.043,0-2.664-2.62-2.664-2.662A.091.091,0,0,1,7.62-24.4C7.639-24.4,8.24-23.815,8.958-23.1Zm-.558.592.852.852-.633.633-.633.633-.207-.083c-.266-.1-.349-.179-.424-.375a1.068,1.068,0,0,0-.692-.679.5.5,0,0,1-.385-.415l-.04-.128.645-.645c.354-.354.647-.643.654-.643S7.931-22.975,8.4-22.507ZM5.787-21.451a1.2,1.2,0,0,0,.341.375,1.436,1.436,0,0,0,.256.124.536.536,0,0,1,.394.377,1.112,1.112,0,0,0,.615.637l.1.043-2.464,2.46a25.83,25.83,0,0,1-2.609,2.528,1.19,1.19,0,0,1-1.393-.221.946.946,0,0,1-.239-.33A1.174,1.174,0,0,1,.8-16.544a22.727,22.727,0,0,1,2.5-2.583c1.329-1.331,2.424-2.421,2.43-2.421A.339.339,0,0,1,5.787-21.451Z" transform="translate(5.036 7.085)"/><path class="a" d="M4.723-7.38a.4.4,0,0,0-.217.274.448.448,0,0,0,.235.517.432.432,0,0,0,.629-.4A.44.44,0,0,0,4.723-7.38Z" transform="translate(2.642 -3.187)"/><path class="a" d="M7.644-7.371a.5.5,0,0,0-.261.334.533.533,0,0,0,.352.616.5.5,0,0,0,.658-.5A.51.51,0,0,0,7.644-7.371Z" transform="translate(0.848 -3.259)"/><path class="a" d="M2.905-4.771a.317.317,0,0,0-.174.183.258.258,0,0,0,.448.234.291.291,0,0,0,.019-.3A.284.284,0,0,0,2.905-4.771Z" transform="translate(6.009 -6.531)"/><path class="a" d="M5.537-4.593a.412.412,0,0,0-.2.319.424.424,0,0,0,.194.314.353.353,0,0,0,.535-.275A.356.356,0,0,0,5.537-4.593Z" transform="translate(2.313 -6.787)"/></g></svg>