<svg xmlns="http://www.w3.org/2000/svg" width="25" height="24.707" viewBox="0 0 25 24.707"><defs><style>.a{fill:#bc00bc;}</style></defs><g transform="translate(0 24.854)"><path class="a" d="M0-12.5V-.146H18.652V-1.5l.649-.029a5.273,5.273,0,0,0,4.224-2.363,5.468,5.468,0,0,0,.64-4.7c-.063-.181-.088-.322-.059-.342s.234-.19.469-.386L25-9.673l-.469-.562c-.415-.493-.483-.552-.552-.493-.044.034-.205.171-.361.3l-.283.234-.415-.42a4.958,4.958,0,0,0-1.411-1.055,5.208,5.208,0,0,0-2.378-.591h-.479v-12.6H0Zm17.188-5.166v5.728l-.361.161A5.7,5.7,0,0,0,14.248-9.3a5.951,5.951,0,0,0-.474,1.416l-.088.439-2.939.015-2.939.01.015.723.015.718,2.964.015,2.959.01.034.21a6.256,6.256,0,0,0,.522,1.4,5.353,5.353,0,0,0,2.446,2.319c.347.161.425.215.425.3v.112H1.465V-23.389H17.188Zm2.856,6.992a4.694,4.694,0,0,1,1.318.64,3.529,3.529,0,0,1,.8.8c0,.02-.684.6-1.514,1.294l-1.509,1.26-1.1-.884-1.094-.879-.449.557a3.726,3.726,0,0,0-.43.6c0,.02.7.591,1.553,1.27l1.533,1.23.347-.288c.19-.156,1.016-.845,1.836-1.533s1.5-1.235,1.509-1.226a3.26,3.26,0,0,1,.107,1,3.767,3.767,0,0,1-1.211,2.788,3.782,3.782,0,0,1-1.816.981,4.442,4.442,0,0,1-1.982-.059,3.927,3.927,0,0,1-2.739-4.443,3.962,3.962,0,0,1,3.057-3.149A5.337,5.337,0,0,1,20.044-10.674Z"/><path class="a" d="M4.463-19.395a.656.656,0,0,0-.361.61.679.679,0,0,0,.43.679.7.7,0,0,0,.942-.376.5.5,0,0,0,.044-.42,1.066,1.066,0,0,0-.215-.371.477.477,0,0,0-.425-.2A.6.6,0,0,0,4.463-19.395Z"/><path class="a" d="M7.847-19.4a4.181,4.181,0,0,0-.034.732v.7h6.646l-.015-.723-.015-.718-3.276-.015C9.351-19.429,7.861-19.419,7.847-19.4Z"/><path class="a" d="M4.478-15.332a.733.733,0,0,0-.024,1.27.727.727,0,0,0,1.079-.6A.722.722,0,0,0,4.478-15.332Z"/><path class="a" d="M7.813-14.7v.732h6.646l-.015-.723-.015-.718-3.306-.015-3.311-.01Z"/><path class="a" d="M7.813-10.693v.732h6.641v-1.465H7.813Z"/><path class="a" d="M4.463-11.235a.707.707,0,0,0-.283.957.716.716,0,0,0,1.328-.5A.7.7,0,0,0,4.463-11.235Z"/><path class="a" d="M4.492-7.192a.725.725,0,0,0,.386,1.367.7.7,0,0,0,.654-.684A.73.73,0,0,0,4.492-7.192Z"/></g></svg>