<svg xmlns="http://www.w3.org/2000/svg" width="17.265" height="19" viewBox="0 0 17.265 19">
  <g id="security" transform="translate(-0.885 19.037)">
    <path id="Path_98" data-name="Path 98" d="M4.835-18.961a1.812,1.812,0,0,0-.974,1.086,3.508,3.508,0,0,1-1.837,1.86c-.6.29-.736.394-.922.684l-.216.342.03,2.232a13.636,13.636,0,0,0,.193,2.975A13.466,13.466,0,0,0,8.257-.431,2.23,2.23,0,0,0,9.5-.037c.417,0,.543-.045,1.376-.469A13.38,13.38,0,0,0,17.8-9.447a15.51,15.51,0,0,0,.35-3.831c0-2.06-.082-2.246-1.25-2.789a3.342,3.342,0,0,1-1.726-1.726,3.679,3.679,0,0,0-.491-.818c-.469-.439-.357-.431-5.214-.424C6.732-19.035,4.947-19.006,4.835-18.961Zm9.09,1.16a2.148,2.148,0,0,1,.238.461,4.535,4.535,0,0,0,2.2,2.261l.632.312.022,1.413A13.285,13.285,0,0,1,16.29-8.22,12.288,12.288,0,0,1,10.8-1.733c-1.116.625-1.22.662-1.6.513A13.652,13.652,0,0,1,6.888-2.581a13.818,13.818,0,0,1-2.462-2.47,12.624,12.624,0,0,1-2.232-5.028,18.041,18.041,0,0,1-.164-4.567,2.013,2.013,0,0,1,.729-.506,4.365,4.365,0,0,0,2.12-2.269,1.429,1.429,0,0,1,.238-.417,34.158,34.158,0,0,1,4.4-.089C13.516-17.927,13.821-17.919,13.925-17.8Z"/>
    <path id="Path_99" data-name="Path 99" d="M8.517-15.48a2.4,2.4,0,0,0-1.2,1.257,5.358,5.358,0,0,0-.156,1.369l-.037,1.019-.238.045a1.519,1.519,0,0,0-.937.714c-.149.29-.156.394-.134,2.4.022,1.964.03,2.12.186,2.447a2.732,2.732,0,0,0,1.19,1.22l.431.216h1.86c1.86,0,1.86,0,2.269-.193a2.46,2.46,0,0,0,1.376-1.666,21.683,21.683,0,0,0,.03-4.166,1.506,1.506,0,0,0-.982-.937l-.335-.1-.03-1.079a2.972,2.972,0,0,0-.2-1.451A2.244,2.244,0,0,0,9.521-15.7,1.838,1.838,0,0,0,8.517-15.48Zm1.756,1.16c.372.35.439.6.439,1.6v.893H8.242l.022-.952c.03-1.064.126-1.324.6-1.636a.9.9,0,0,1,.714-.149A.881.881,0,0,1,10.273-14.319Zm1.77,3.712a7.608,7.608,0,0,1,.067,1.919c-.022,2.031-.037,2.083-.6,2.544l-.29.231-1.532.022c-1.622.03-1.927-.015-2.284-.3-.439-.342-.484-.58-.484-2.6,0-1.4.022-1.845.1-1.867.045-.022,1.183-.045,2.514-.045C11.552-10.712,11.976-10.7,12.043-10.607Z"/>
    <path id="Path_100" data-name="Path 100" d="M9.142-9.231c-.164.126-.179.208-.2.893-.03.714-.022.751.164.937a.556.556,0,0,0,.788.037c.126-.126.149-.245.149-.922,0-.751-.007-.781-.193-.93A.51.51,0,0,0,9.142-9.231Z"/>
  </g>
</svg>
