<svg xmlns="http://www.w3.org/2000/svg" xmlns:xlink="http://www.w3.org/1999/xlink" width="20" height="20" viewBox="0 0 20 20">
  <defs>
    <clipPath id="clip-path">
      <rect id="Rectangle_38" data-name="Rectangle 38" width="20" height="20" transform="translate(0.096)" fill="#fff"/>
    </clipPath>
  </defs>
  <g id="Mask_Group_3" data-name="Mask Group 3" transform="translate(-0.096)" clip-path="url(#clip-path)">
    <circle id="Ellipse_6" data-name="Ellipse 6" cx="6" cy="6" r="6" transform="translate(4.096 1)" fill="#ffc8fb"/>
    <path id="_759442_female_gender_sexual_orientation_woman_icon" data-name="759442_female_gender_sexual orientation_woman_icon" d="M20.208,25.583v3H18.75a.625.625,0,0,0,0,1.25h1.458V31.25a.625.625,0,0,0,1.25,0V29.833h1.458a.625.625,0,0,0,0-1.25H21.458v-3a6.875,6.875,0,1,0-1.25,0Zm.625-12.458a5.625,5.625,0,1,1-5.625,5.625A5.655,5.655,0,0,1,20.833,13.125Z" transform="translate(-10.833 -11.875)" fill="#ff20f0"/>
  </g>
</svg>
