<svg xmlns="http://www.w3.org/2000/svg" width="17.701" height="19" viewBox="0 0 17.701 19">
  <g id="settings" transform="translate(-0.862 19.196)">
    <path id="Path_113" data-name="Path 113" d="M13.288-19.031a.385.385,0,0,0-.108.4,3.308,3.308,0,0,0,.191.717c.077.2.01.217-.279.093a9.3,9.3,0,0,0-2.3-.624,8.872,8.872,0,0,0-6.017,1.435A7.433,7.433,0,0,0,3.53-16a8.817,8.817,0,0,0-2.2,3.509A7.657,7.657,0,0,0,.862-9.624a8.516,8.516,0,0,0,.98,4.035,2.8,2.8,0,0,0,.33.557.561.561,0,0,0,.64-.026c.217-.2.2-.335-.124-1.006a7.74,7.74,0,0,1-.836-2.926,7.938,7.938,0,0,1,.346-3.1,8.263,8.263,0,0,1,1.228-2.307.218.218,0,0,0,.083-.129,15.14,15.14,0,0,1,1.5-1.471,9.224,9.224,0,0,1,1.868-1.037A7.165,7.165,0,0,1,9.7-17.514a6.428,6.428,0,0,1,2.441.366c.408.129.454.186.206.243-.4.093-.583.268-.583.552a.734.734,0,0,0,.464.459c.1,0,1.342-.341,1.909-.521a.683.683,0,0,0,.439-.356c.057-.108.057-.181-.01-.413-.041-.155-.119-.449-.17-.645-.33-1.254-.392-1.367-.753-1.367A.361.361,0,0,0,13.288-19.031Z"/>
    <path id="Path_114" data-name="Path 114" d="M9.036-15.347A2.465,2.465,0,0,0,7.7-14.4a2.711,2.711,0,0,0-.475,1.93c0,.728-.01.815-.088.841a1.638,1.638,0,0,0-1.037.815l-.139.263v4.386l.144.284a1.342,1.342,0,0,0,.7.7l.294.15h5.212l.284-.144a1.344,1.344,0,0,0,.712-.707l.139-.284v-4.386l-.139-.263a1.641,1.641,0,0,0-1.032-.815c-.083-.026-.093-.114-.093-.841a2.888,2.888,0,0,0-.268-1.595,2.277,2.277,0,0,0-1.44-1.238A2.669,2.669,0,0,0,9.036-15.347Zm1.249,1a1.588,1.588,0,0,1,.759.712c.124.232.129.294.129,1.1v.851H8.231v-.851c0-.82.005-.862.139-1.109a1.412,1.412,0,0,1,.686-.666A1.631,1.631,0,0,1,10.285-14.351ZM12.2-10.62c.279.124.284.186.284,2.255,0,1.115-.021,1.961-.052,2.038a.582.582,0,0,1-.217.237c-.165.1-.263.1-2.508.1-2.565,0-2.56,0-2.719-.31A8.333,8.333,0,0,1,6.915-8.37c.005-2.059.01-2.1.263-2.24A45.347,45.347,0,0,1,12.2-10.62Z"/>
    <path id="Path_115" data-name="Path 115" d="M9.392-10.171a1.437,1.437,0,0,0-.929.872.956.956,0,0,0-.046.738,1.264,1.264,0,0,0,.63.826l.191.1V-7.2c0,.423.005.439.16.568a.423.423,0,0,0,.635-.015c.124-.129.144-.2.17-.573.031-.418.031-.423.222-.542a1.317,1.317,0,0,0,.485-1.656,1.762,1.762,0,0,0-.645-.661A1.6,1.6,0,0,0,9.392-10.171ZM9.959-9.1a.333.333,0,0,1,.083.3c-.041.191-.072.222-.273.263a.267.267,0,0,1-.294-.1.287.287,0,0,1-.005-.475A.3.3,0,0,1,9.959-9.1Z"/>
    <path id="Path_116" data-name="Path 116" d="M16.735-14.346a.585.585,0,0,0-.294.49c.015.057.165.382.33.722a7.312,7.312,0,0,1,.774,2.683,6.3,6.3,0,0,1-.021,1.7,7.257,7.257,0,0,1-.635,2.322,8.339,8.339,0,0,1-2.916,3.4A8.1,8.1,0,0,1,11.559-2,8.057,8.057,0,0,1,8-1.966a5.187,5.187,0,0,1-1.223-.423,1.222,1.222,0,0,1,.377-.2c.361-.144.464-.232.521-.444a.527.527,0,0,0-.485-.578,19.9,19.9,0,0,0-2.064.805.691.691,0,0,0-.2.232c-.083.16-.077.175.32,1.151s.521,1.2.717,1.218c.294.031.392-.005.49-.17.134-.217.129-.335-.026-.686A2.017,2.017,0,0,1,6.3-1.4c0-.062.186-.057.3.005a7.359,7.359,0,0,0,.913.3A9.289,9.289,0,0,0,9.067-.82a8.886,8.886,0,0,0,3.318-.4,7.058,7.058,0,0,0,1.2-.506A8.492,8.492,0,0,0,15.863-3.3a10.348,10.348,0,0,0,1.321-1.631,1.41,1.41,0,0,1,.144-.248A8.183,8.183,0,0,0,17.973-6.5a8.793,8.793,0,0,0,.108-6.038,8.711,8.711,0,0,0-.831-1.713A.55.55,0,0,0,16.735-14.346Z"/>
  </g>
</svg>
