<svg xmlns="http://www.w3.org/2000/svg" xmlns:xlink="http://www.w3.org/1999/xlink" width="20" height="20" viewBox="0 0 20 20">
  <defs>
    <clipPath id="clip-path">
      <rect id="Rectangle_34" data-name="Rectangle 34" width="20" height="20" transform="translate(-0.161)" fill="#fff"/>
    </clipPath>
  </defs>
  <g id="Mask_Group_5" data-name="Mask Group 5" transform="translate(0.161)" clip-path="url(#clip-path)">
    <g id="_391-3916045_task-management-task-management-icon-hd-png-download" data-name="391-3916045_task-management-task-management-icon-hd-png-download" transform="translate(1.917 0)">
      <path id="Path_35" data-name="Path 35" d="M8.4-20.79a2.564,2.564,0,0,0-.637.286,1.836,1.836,0,0,0-.741,1.268L7-19.088H5v2.531h7.574v-2.531h-2l-.012-.078a2.025,2.025,0,0,0-.678-1.288,2.019,2.019,0,0,0-.619-.308A2.436,2.436,0,0,0,8.4-20.79Zm.643,1.019a.8.8,0,0,1,.361.284.721.721,0,0,1,.12.323l.012.078H8.043v-.049a.956.956,0,0,1,.041-.182A.749.749,0,0,1,9.044-19.772Z" transform="translate(-0.697 20.817)" fill="#72bccb"/>
      <path id="Path_36" data-name="Path 36" d="M2.135-18.616a1.612,1.612,0,0,0-1.3,1l-.125.253L.7-10.393C.69-3.281.7-2.239.764-2a1.737,1.737,0,0,0,.443.735,1.774,1.774,0,0,0,.523.359l.19.094H15.648l.2-.1A1.807,1.807,0,0,0,16.8-1.925l.063-.159V-17.373l-.114-.231a1.728,1.728,0,0,0-.5-.672,1.51,1.51,0,0,0-.872-.343c-.116-.01-.637-.02-1.158-.02h-.947v.978l.067.01c.035.006.523.014,1.08.018l1.015.008.157.116a.631.631,0,0,1,.182.184c.108.257.118,1.035.1,8.5l-.014,6.584-.08.108a1.506,1.506,0,0,1-.231.218L15.4-1.8H2.174L2.031-1.9a1.413,1.413,0,0,1-.225-.21l-.086-.1L1.709-4.993c-.02-4.107-.016-10.863.006-11.455.033-.849.047-.9.282-1.068l.155-.108,1.013-.008c.555,0,1.041-.012,1.078-.018l.065-.01v-.978l-1,0C2.75-18.634,2.223-18.626,2.135-18.616Z" transform="translate(-0.697 20.817)" fill="#72bccb"/>
      <path id="Path_37" data-name="Path 37" d="M2.695-13.494v1.939H6.62l-.01-1.051c-.006-.58-.016-1.057-.022-1.066s-.108.061-.4.325l-.214.192-.006.494,0,.494H3.3l.01-1.307c0-.719.012-1.309.018-1.313s.6-.012,1.315-.016l1.307-.008.012.118a.561.561,0,0,0,.024.129,4.4,4.4,0,0,0,.6-.594.371.371,0,0,0,.027-.169l-.006-.1L4.65-15.429l-1.956,0Z" transform="translate(-0.697 20.817)" fill="#72bccb"/>
      <path id="Path_38" data-name="Path 38" d="M6.859-15.184c-.661.6-1.925,1.711-1.939,1.711a4.8,4.8,0,0,1-.349-.363c-.182-.2-.337-.361-.345-.361a4.1,4.1,0,0,0-.6.508c.022.035.87.962,1.045,1.139a1.076,1.076,0,0,0,.174.159c.076,0,2.748-2.356,2.748-2.423a2.183,2.183,0,0,0-.261-.3l-.261-.265Z" transform="translate(-0.697 20.817)" fill="#72bccb"/>
      <path id="Path_39" data-name="Path 39" d="M8.45-14.025A.616.616,0,0,0,8-13.849a.505.505,0,0,0-.159.408.476.476,0,0,0,.229.378.8.8,0,0,0,.523.143c.353.022,5.214.02,5.549,0a.748.748,0,0,0,.565-.194.483.483,0,0,0,.153-.367.477.477,0,0,0-.151-.363c-.133-.135-.206-.157-.541-.178C13.819-14.047,8.676-14.047,8.45-14.025Z" transform="translate(-0.697 20.817)" fill="#72bccb"/>
      <path id="Path_40" data-name="Path 40" d="M2.695-9.06V-7.1L3.74-7.11c.574-.008,1.451-.014,1.95-.014h.9V-11L5.63-11.01c-.531-.008-1.409-.014-1.95-.014H2.695Zm3.266,0v1.307H3.307v-2.613H5.961Z" transform="translate(-0.697 20.817)" fill="#72bccb"/>
      <path id="Path_41" data-name="Path 41" d="M8.646-9.615c-.392.016-.488.043-.629.18a.455.455,0,0,0-.165.372.463.463,0,0,0,.176.382c.163.159.11.153,1.4.171.635.008,2.017.016,3.072.016l1.921,0,.122-.09a1.42,1.42,0,0,0,.2-.174.5.5,0,0,0-.063-.7c-.112-.11-.225-.131-.808-.155C13.329-9.636,9.193-9.638,8.646-9.615Z" transform="translate(-0.697 20.817)" fill="#72bccb"/>
      <path id="Path_42" data-name="Path 42" d="M2.695-4.655v1.939H6.62L6.61-3.766c-.006-.58-.016-1.057-.022-1.066s-.127.076-.412.333l-.214.194v.978H4.955c-.555,0-1.147-.006-1.317-.014l-.31-.012V-5.961l.959,0c.529,0,1.119-.006,1.313-.006h.351l.012.118a.557.557,0,0,0,.022.127,4.5,4.5,0,0,0,.6-.592.345.345,0,0,0,.029-.169l-.006-.1L4.65-6.59l-1.956,0Z" transform="translate(-0.697 20.817)" fill="#72bccb"/>
      <path id="Path_43" data-name="Path 43" d="M6.959-6.437c-.257.241-2.025,1.8-2.039,1.8S4.426-5.149,4.3-5.3c-.031-.037-.069-.063-.084-.057s-.155.118-.314.249l-.288.239.049.053c.027.029.216.241.423.472a7.077,7.077,0,0,0,.766.8c.076,0,2.746-2.356,2.746-2.423a2.116,2.116,0,0,0-.263-.3L7.07-6.541Z" transform="translate(-0.697 20.817)" fill="#72bccb"/>
      <path id="Path_44" data-name="Path 44" d="M8.748-5.206c-.484.014-.531.022-.688.135a.587.587,0,0,0-.212.359.576.576,0,0,0,.329.557c.108.053.122.055.688.071.749.024,4.226.024,4.973,0l.58-.016.133-.065a.523.523,0,0,0,.284-.639.605.605,0,0,0-.265-.316l-.139-.1-2.617,0C10.375-5.22,8.995-5.214,8.748-5.206Z" transform="translate(-0.697 20.817)" fill="#72bccb"/>
    </g>
  </g>
</svg>
